<?xml version="1.0" encoding="UTF-8" standalone="no"?>
<!-- Created with Inkscape (http://www.inkscape.org/) -->

<svg
   xmlns:dc="http://purl.org/dc/elements/1.1/"
   xmlns:cc="http://creativecommons.org/ns#"
   xmlns:rdf="http://www.w3.org/1999/02/22-rdf-syntax-ns#"
   xmlns:svg="http://www.w3.org/2000/svg"
   xmlns="http://www.w3.org/2000/svg"
   xmlns:sodipodi="http://sodipodi.sourceforge.net/DTD/sodipodi-0.dtd"
   xmlns:inkscape="http://www.inkscape.org/namespaces/inkscape"
   width="512"
   height="512"
   viewBox="0 0 135.46666 135.46667"
   version="1.1"
   id="OpenUIX_Icon"
   inkscape:version="0.92.1 r15371"
   sodipodi:docname="OpenUIX_Icon.svg"
   inkscape:export-filename="C:\Users\Mikel Salazar\Projects\OpenUIX\Presentation\Brand\Icon\OpenUIX_Icon.png"
   inkscape:export-xdpi="96"
   inkscape:export-ydpi="96">
  <title
     id="title">The icon of the OpenUIX project</title>
  <defs
     id="defs2" />
  <sodipodi:namedview
     id="base"
     pagecolor="#ffffff"
     bordercolor="#666666"
     borderopacity="1.0"
     inkscape:pageopacity="0.0"
     inkscape:pageshadow="2"
     inkscape:zoom="1.4"
     inkscape:cx="279.76371"
     inkscape:cy="297.45692"
     inkscape:document-units="mm"
     inkscape:current-layer="OpenUIX_Icon"
     showgrid="true"
     units="px"
     inkscape:pagecheckerboard="true"
     inkscape:window-width="1920"
     inkscape:window-height="1057"
     inkscape:window-x="1912"
     inkscape:window-y="-8"
     inkscape:window-maximized="1">
    <inkscape:grid
       type="xygrid"
       id="Grid"
       empspacing="16" />
  </sodipodi:namedview>
  <metadata
     id="metadata5">
    <rdf:RDF>
      <cc:Work
         rdf:about="">
        <dc:format>image/svg+xml</dc:format>
        <dc:type
           rdf:resource="http://purl.org/dc/dcmitype/StillImage" />
        <dc:title>The icon of the OpenUIX project</dc:title>
        <cc:license
           rdf:resource="http://creativecommons.org/licenses/by/4.0/" />
      </cc:Work>
      <cc:License
         rdf:about="http://creativecommons.org/licenses/by/4.0/">
        <cc:permits
           rdf:resource="http://creativecommons.org/ns#Reproduction" />
        <cc:permits
           rdf:resource="http://creativecommons.org/ns#Distribution" />
        <cc:requires
           rdf:resource="http://creativecommons.org/ns#Notice" />
        <cc:requires
           rdf:resource="http://creativecommons.org/ns#Attribution" />
        <cc:permits
           rdf:resource="http://creativecommons.org/ns#DerivativeWorks" />
      </cc:License>
    </rdf:RDF>
  </metadata>
  <g
     inkscape:label="Layer 1"
     inkscape:groupmode="layer"
     id="layer1"
     transform="translate(0,-161.53332)" />
  <path
     style="fill:#000000;fill-opacity:1;stroke:none;stroke-width:0.75590563;stroke-miterlimit:4;stroke-dasharray:none;stroke-dashoffset:0;stroke-opacity:1"
     d="M 256 16 A 240.00001 240.00001 0 0 0 64.292969 112 L 106.74805 112 A 207.62205 207.62205 0 0 1 256 48.378906 A 207.62205 207.62205 0 0 1 405.50977 112 L 447.62891 112 A 240.00001 240.00001 0 0 0 256 16 z M 64.371094 400 A 240.00001 240.00001 0 0 0 256 496 A 240.00001 240.00001 0 0 0 447.70703 400 L 405.25195 400 A 207.62205 207.62205 0 0 1 256 463.62109 A 207.62205 207.62205 0 0 1 106.49023 400 L 64.371094 400 z "
     transform="scale(0.26458333)"
     id="path4493" />
  <path
     style="fill:#000000;fill-opacity:1;stroke:none;stroke-width:0.75590557;stroke-miterlimit:4;stroke-dasharray:none;stroke-dashoffset:0;stroke-opacity:1"
     d="m 208,144 v 32 l 32,0 v 160 l -32,0 v 32 h 96 v -32 l -32,0 V 176 l 32,0 v -32 z"
     transform="scale(0.26458333)"
     id="rect4519-8"
     inkscape:connector-curvature="0"
     sodipodi:nodetypes="ccccccccccccc" />
  <path
     style="fill:#000000;fill-opacity:1;stroke:none;stroke-width:0.20000002;stroke-miterlimit:4;stroke-dasharray:none;stroke-dashoffset:0;stroke-opacity:1"
     d="M 4.2333341,38.1 V 76.2 A 21.166666,21.166666 0 0 0 25.400001,97.366666 21.166666,21.166666 0 0 0 46.566667,76.2 V 38.1 h -8.466666 v 38.1 a 12.699999,12.699999 0 0 1 -12.7,12.699999 A 12.699999,12.699999 0 0 1 12.700001,76.2 V 38.1 Z"
     id="rect4558"
     inkscape:connector-curvature="0" />
  <path
     style="fill:#000000;fill-opacity:1;stroke:none;stroke-width:0.75590551;stroke-miterlimit:4;stroke-dasharray:none;stroke-dashoffset:0;stroke-opacity:1"
     d="M 336 144 L 336 176 L 396 256 L 336 336 L 336 368 L 352 368 L 416 282.66602 L 480 368 L 496 368 L 496 336 L 436 256 L 496 176 L 496 144 L 480 144 L 416 229.33398 L 352 144 L 336 144 z "
     transform="scale(0.26458333)"
     id="rect4686" />
</svg>
